<?xml version="1.0" encoding="utf-8"?>
<!-- Generator: Adobe Illustrator 18.0.0, SVG Export Plug-In . SVG Version: 6.00 Build 0)  -->
<!DOCTYPE svg PUBLIC "-//W3C//DTD SVG 1.1//EN" "http://www.w3.org/Graphics/SVG/1.1/DTD/svg11.dtd">
<svg version="1.1" id="Layer_1" xmlns="http://www.w3.org/2000/svg" xmlns:xlink="http://www.w3.org/1999/xlink" x="0px" y="0px"
	 viewBox="0 0 310.5 310.5" enable-background="new 0 0 310.5 310.5" xml:space="preserve">
<circle fill="#BE1E2D" cx="155.2" cy="155.2" r="155.2"/>
<path fill="#A11E26" d="M97.1,231.2c0,0-20.3,5.2-35.8,0s-53.8-41-6.1-72.2c0,0,32.1-6.6,53.8,15.6c0,0,22.2-15.1,48.1,8.5
	c0,0,7.5-58,0-70.8c0,0-10.4-38.4-17.5-30.1c0,0-0.9,8.6-27.4,0c0,0-7.1-2.7-13.2,0c0,0-10.4-0.1,0-9.6c0,0-15.5-3.3-2.8-15.1
	s6.6-18.4,25.9-10.4c0,0,24.5,4.7,43.4,21.2c0,0,2.8,1.7,5.7,13.8c2.8,12.1,18.9,37.1,25,46.6c6.1,9.4,23.1,46.2,25.5,74.1
	s4.7,18.9-8,25.5c-12.7,6.6-21.7,8.4-35.4,5.1C178.2,233.5,152.2,254.3,97.1,231.2z"/>
<path fill="#FFFFFF" d="M124.6,231.2c0,0-20.3,5.2-35.8,0s-53.8-41-6.1-72.2c0,0,32.1-6.6,53.8,15.6c0,0,22.2-15.1,48.1,8.5
	c0,0,7.5-58,0-70.8c0,0-10.4-38.4-17.5-30.1c0,0-0.9,8.6-27.4,0c0,0-7.1-2.7-13.2,0c0,0-10.4-0.1,0-9.6c0,0-15.5-3.3-2.8-15.1
	s6.6-18.4,25.9-10.4c0,0,24.5,4.7,43.4,21.2c0,0,2.8,1.7,5.7,13.8c2.8,12.1,18.9,37.1,25,46.6c6.1,9.4,23.1,46.2,25.5,74.1
	s4.7,18.9-8,25.5c-12.7,6.6-21.7,8.4-35.4,5.1C205.7,233.5,179.8,254.3,124.6,231.2z"/>
</svg>
