<?xml version="1.0" encoding="utf-8"?>
<!-- Generator: Adobe Illustrator 18.0.0, SVG Export Plug-In . SVG Version: 6.00 Build 0)  -->
<!DOCTYPE svg PUBLIC "-//W3C//DTD SVG 1.1//EN" "http://www.w3.org/Graphics/SVG/1.1/DTD/svg11.dtd">
<svg version="1.1" id="Layer_1" xmlns="http://www.w3.org/2000/svg" xmlns:xlink="http://www.w3.org/1999/xlink" x="0px" y="0px"
	 viewBox="0 0 182.4 182.4" enable-background="new 0 0 182.4 182.4" xml:space="preserve">
<circle fill="none" stroke="#BE3026" stroke-width="11" stroke-miterlimit="10" cx="91.2" cy="91.2" r="85.7"/>
<path fill="none" stroke="#BE3026" stroke-width="6" stroke-miterlimit="10" d="M145.2,58.8c-1.1,6.8-3.4,57.3-5.9,59.3
	c0,0,0,8.2-6.8,9.8c-6.8,1.6-48.9-6.6-53.9-14.3c0,0-28,0.9-35.7-4.1c-7.7-5-33.3-21.3-12.7-37.6c0,0,29.7-21.2,50.3,9.1
	c0,0,22.4-12.7,41.8,11.5c0,0,8.5-24.8,13.3-39.4c0,0-10.9-8.5-9.1-13.9c0,0,0.1-0.5,1.2-0.8c0,0,0.4,0,0.8,0.4c0,0,0.2-1.3,1-1.5
	c0.8-0.2,1.5,0.6,1.5,0.6s-0.2-1.1,1-1.6c1.2-0.5,1.6,0.6,1.6,0.6s-0.3-1.9,1.2-1.6c1.5,0.3,3.3,0,3.3,0s0.2,1.6,0.8,1.4
	c3.1-1.4,6.1,1.7,6.4,4.5C145.4,41,146.4,52,145.2,58.8z"/>
<path fill="#A92826" d="M81.6,113.6c0,0-10.2-4.4-11.4-16.5c0,0,7.9,18.1,40.6,27.9C110.9,124.9,91.8,124.8,81.6,113.6z"/>
<path fill="#FFFFFF" d="M139.1,52.1c0,0-10.9-9-10.5-10s-2.8-3,2.6-4.9c5.4-1.9,8.5-0.2,9.5,1.9S142.1,52.8,139.1,52.1z"/>
</svg>
