<?xml version="1.0" encoding="utf-8"?>
<!-- Generator: Adobe Illustrator 18.0.0, SVG Export Plug-In . SVG Version: 6.00 Build 0)  -->
<!DOCTYPE svg PUBLIC "-//W3C//DTD SVG 1.1//EN" "http://www.w3.org/Graphics/SVG/1.1/DTD/svg11.dtd">
<svg version="1.1" id="Layer_1" xmlns="http://www.w3.org/2000/svg" xmlns:xlink="http://www.w3.org/1999/xlink" x="0px" y="0px"
	 viewBox="0 0 310.5 310.5" enable-background="new 0 0 310.5 310.5" xml:space="preserve">
<circle fill="#BE1E2D" cx="155.2" cy="155.2" r="155.2"/>
<path fill="#A11E26" d="M135.4,246.9c0,0-73.2-10-51.2-97.3c0,0,6.7-20,19.3-33.3s26-31.3,15.3-64.7c0,0,20,20,26.7,31.3
	s17.3,24,6,61.3c0,0,10,0.7,14-32C165.5,112.2,237.2,209.5,135.4,246.9z"/>
<path fill="#FFFFFF" d="M157.6,240.6c0,0-73.2-10-51.2-97.3c0,0,6.7-20,19.3-33.3s26-31.3,15.3-64.7c0,0,20,20,26.7,31.3
	s17.3,24,6,61.3c0,0,10,0.7,14-32C187.8,105.9,259.4,203.2,157.6,240.6z"/>
<path fill="#BE1E2D" d="M158,227.9c0,0-26.5-3.3-29.8-37.3c0,0,10,9.3,12,6c0,0-29.5-37.3,2.9-74c0,0-4.9,38,28.4,52.7
	c0,0,7.3,1.3,8-13.3C179.5,161.9,209.2,207.2,158,227.9z"/>
</svg>
