<?xml version="1.0" encoding="utf-8"?>
<!-- Generator: Adobe Illustrator 18.0.0, SVG Export Plug-In . SVG Version: 6.00 Build 0)  -->
<!DOCTYPE svg PUBLIC "-//W3C//DTD SVG 1.1//EN" "http://www.w3.org/Graphics/SVG/1.1/DTD/svg11.dtd">
<svg version="1.1" id="Layer_1" xmlns="http://www.w3.org/2000/svg" xmlns:xlink="http://www.w3.org/1999/xlink" x="0px" y="0px"
	 viewBox="0 0 181.4 181.4" enable-background="new 0 0 181.4 181.4" xml:space="preserve">
<path fill="#A92826" d="M104.3,62.1c-14.6-15.9-14.8-30-14.7-32.7c-2.7,37.2-37,45.9-27.9,86.3c2.7,12.2,26.8,37.4,27.6,36.9
	c17.3-12,26.9-31.3,26.9-31.3C126.4,104.6,120.6,79.7,104.3,62.1z M102.4,132c0,0-4.7,12.6-13.1,20.4c-0.4,0.4-12.1-16.1-13.5-24
	C71.5,102,88.2,96.3,89.5,71.9c-0.1,1.4-0.1,10.8,7.2,21.5C104.6,104.9,107.4,121.1,102.4,132z"/>
<ellipse fill="none" stroke="#BE3026" stroke-width="11" stroke-miterlimit="10" cx="90.7" cy="90.7" rx="81.8" ry="84.3"/>
</svg>
