<?xml version="1.0" encoding="utf-8"?>
<!-- Generator: Adobe Illustrator 18.0.0, SVG Export Plug-In . SVG Version: 6.00 Build 0)  -->
<!DOCTYPE svg PUBLIC "-//W3C//DTD SVG 1.1//EN" "http://www.w3.org/Graphics/SVG/1.1/DTD/svg11.dtd">
<svg version="1.1" id="Layer_1" xmlns="http://www.w3.org/2000/svg" xmlns:xlink="http://www.w3.org/1999/xlink" x="0px" y="0px"
	 viewBox="0 0 310.5 310.5" enable-background="new 0 0 310.5 310.5" xml:space="preserve">
<circle fill="#BE1E2D" cx="155.2" cy="155.2" r="155.2"/>
<g>
	<g>
		<path fill="#A11E26" d="M108.4,147c0,0-0.3-1.8-0.6-4.9c-2.1-19.1-6.6-86.2,38-69.3c3.3,1.3,6.2,3.6,7.6,6.9
			c1.1,2.5,1.7,5.7,0.1,9.5c-3.8,9-21.3,22.9-30.1,28.6C115.9,122.6,108.4,147,108.4,147z"/>
		<path fill="#A11E26" d="M115.5,177.8c0,0-1.7-0.7-4.5-2.1c-17.3-8.4-76.5-40.2-38.5-69c2.8-2.1,6.4-3.3,9.9-2.8
			c2.7,0.4,5.7,1.6,8.1,5c5.6,8,8.1,30.2,8.2,40.7C98.8,158.5,115.5,177.8,115.5,177.8z"/>
		<path fill="#A11E26" d="M130.5,122.5c0,0,1.5-1.1,4.1-2.8c16-10.7,73.4-45.7,79,1.6c0.4,3.5-0.4,7.2-2.6,10
			c-1.7,2.2-4.3,4.1-8.4,4.5c-9.7,0.8-30.1-8.3-39.2-13.4C155.7,117.9,130.5,122.5,130.5,122.5z"/>
		<path fill="#A11E26" d="M172.4,162.2c0,0,0.4,1.8,0.9,4.9c3.1,19,11.1,85.7-34.3,71.2c-3.4-1.1-6.3-3.3-8-6.5
			c-1.3-2.4-2-5.6-0.6-9.5c3.3-9.2,20.1-24,28.5-30.1C166.2,187,172.4,162.2,172.4,162.2z"/>
		<path fill="#A11E26" d="M150.5,188.9c0,0-1.5,1.1-4.1,2.8c-16.1,10.6-73.8,45-79-2.4c-0.4-3.5,0.5-7.1,2.7-9.9
			c1.7-2.2,4.4-4.1,8.4-4.4c9.7-0.7,30,8.6,39.1,13.8C125.3,193.2,150.5,188.9,150.5,188.9z"/>
		<path fill="#A11E26" d="M169.1,131.3c0,0,1.6,0.9,4.3,2.6c16.3,10.2,71.7,48.3,30.9,72.8c-3,1.8-6.7,2.6-10.1,1.7
			c-2.7-0.7-5.5-2.2-7.5-5.8c-4.8-8.5-4.8-30.9-3.8-41.3C183.6,152.3,169.1,131.3,169.1,131.3z"/>
	</g>
</g>
<g>
	<path fill="#FFFFFF" d="M122.4,148.4c0,0-0.3-1.8-0.6-4.9c-2.1-19.1-6.6-86.2,38-69.3c3.3,1.3,6.2,3.6,7.6,6.9
		c1.1,2.5,1.7,5.7,0.1,9.5c-3.8,9-21.3,22.9-30.1,28.6C129.9,124,122.4,148.4,122.4,148.4z"/>
	<path fill="#FFFFFF" d="M129.4,179.2c0,0-1.7-0.7-4.5-2.1c-17.3-8.4-76.5-40.2-38.5-69c2.8-2.1,6.4-3.3,9.9-2.8
		c2.7,0.4,5.7,1.6,8.1,5c5.6,8,8.1,30.2,8.2,40.7C112.7,159.9,129.4,179.2,129.4,179.2z"/>
	<path fill="#FFFFFF" d="M144.5,123.9c0,0,1.5-1.1,4.1-2.8c16-10.7,73.4-45.7,79,1.6c0.4,3.5-0.4,7.2-2.6,10
		c-1.7,2.2-4.3,4.1-8.4,4.5c-9.7,0.8-30.1-8.3-39.2-13.4C169.7,119.3,144.5,123.9,144.5,123.9z"/>
	<path fill="#FFFFFF" d="M186.4,163.7c0,0,0.4,1.8,0.9,4.9c3.1,19,11.1,85.7-34.3,71.2c-3.4-1.1-6.3-3.3-8-6.5
		c-1.3-2.4-2-5.6-0.6-9.5c3.3-9.2,20.1-24,28.5-30.1C180.1,188.5,186.4,163.7,186.4,163.7z"/>
	<path fill="#FFFFFF" d="M164.4,190.3c0,0-1.5,1.1-4.1,2.8c-16.1,10.6-73.8,45-79-2.4c-0.4-3.5,0.5-7.1,2.7-9.9
		c1.7-2.2,4.4-4.1,8.4-4.4c9.7-0.7,30,8.6,39.1,13.8C139.3,194.7,164.4,190.3,164.4,190.3z"/>
	<path fill="#FFFFFF" d="M183.1,132.7c0,0,1.6,0.9,4.3,2.6c16.3,10.2,71.7,48.3,30.9,72.8c-3,1.8-6.7,2.6-10.1,1.7
		c-2.7-0.7-5.5-2.2-7.5-5.8c-4.8-8.5-4.8-30.9-3.8-41.3C197.6,153.8,183.1,132.7,183.1,132.7z"/>
</g>
</svg>
