<?xml version="1.0" encoding="utf-8"?>
<!-- Generator: Adobe Illustrator 18.0.0, SVG Export Plug-In . SVG Version: 6.00 Build 0)  -->
<!DOCTYPE svg PUBLIC "-//W3C//DTD SVG 1.1//EN" "http://www.w3.org/Graphics/SVG/1.1/DTD/svg11.dtd">
<svg version="1.1" id="Layer_1" xmlns="http://www.w3.org/2000/svg" xmlns:xlink="http://www.w3.org/1999/xlink" x="0px" y="0px"
	 viewBox="0 0 181.4 181.4" enable-background="new 0 0 181.4 181.4" xml:space="preserve">
<circle fill="none" stroke="#BE3026" stroke-width="11" stroke-miterlimit="10" cx="90.7" cy="90.7" r="85.2"/>
<path fill="#A92826" d="M89.8,79.6c0,0-6.3-38.2,12.8-39.7c0,0,10.2,6.9-8.3,19.6C94.3,59.5,89.7,67.5,89.8,79.6z"/>
<path fill="#A92826" d="M95.7,80c0,0,16.2-35.2,32.8-25.8c0,0,4.6,11.4-17.8,11.6C110.7,65.8,102.4,69.8,95.7,80z"/>
<path fill="#A92826" d="M102.8,82.9c0,0,27.5-27.3,39.8-12.6c0,0,0.3,12.3-20.7,4.6C121.8,75,112.6,75.8,102.8,82.9z"/>
<path fill="#A92826" d="M101.9,87.5c0,0,36.1-14.2,41.5,4.2c0,0-4.6,11.4-20.9-4C122.6,87.7,113.8,84.9,101.9,87.5z"/>
<path fill="#A92826" d="M104.2,90.7c0,0,37.8,8.4,32.1,26.7c0,0-10.2,6.9-15.1-15C121.2,102.4,115.4,95.1,104.2,90.7z"/>
<path fill="#A92826" d="M98.7,96.2c0,0,32.5,21.2,20.7,36.3c0,0-11.9,2.9-8.9-19.3C110.5,113.1,107.7,104.3,98.7,96.2z"/>
<path fill="#A92826" d="M96.3,102.8c0,0,16.9,34.9-1,41.7c0,0-11.7-3.7,2.4-21.1C97.6,123.4,99.8,114.4,96.3,102.8z"/>
<path fill="#A92826" d="M91.9,106.5c0,0-5.5,38.4-24.2,34c0,0-7.6-9.6,13.8-16.2C81.5,124.4,88.3,118.1,91.9,106.5z"/>
<path fill="#A92826" d="M83.8,102.1c0,0-18.6,34-34.6,23.3c0,0-3.7-11.7,18.6-10.3C67.8,115.1,76.4,111.7,83.8,102.1z"/>
<path fill="#A92826" d="M80,96.5c0,0-31.1,23.1-41.2,6.8c0,0,1.5-12.2,21.2-1.6C60,101.7,69.2,102.2,80,96.5z"/>
<path fill="#A92826" d="M77,94.1c0,0-38.7,1.7-37.9-17.4c0,0,8-9.3,18.5,10.5C57.6,87.2,65,92.7,77,94.1z"/>
<path fill="#A92826" d="M80.9,87.3c0,0-36.9-12-29.4-29.6c0,0,10.8-5.9,13.6,16.3C65.1,74,70.1,81.8,80.9,87.3z"/>
<path fill="#A92826" d="M84.6,81.1c0,0-25.4-29.3-9.9-40.5c0,0,12.2,0.5,3.2,21C78,61.6,78.2,70.9,84.6,81.1z"/>
</svg>
