<?xml version="1.0" encoding="utf-8"?>
<!-- Generator: Adobe Illustrator 18.0.0, SVG Export Plug-In . SVG Version: 6.00 Build 0)  -->
<!DOCTYPE svg PUBLIC "-//W3C//DTD SVG 1.1//EN" "http://www.w3.org/Graphics/SVG/1.1/DTD/svg11.dtd">
<svg version="1.1" id="Layer_1" xmlns="http://www.w3.org/2000/svg" xmlns:xlink="http://www.w3.org/1999/xlink" x="0px" y="0px"
	 viewBox="0 0 93.7 93.6" enable-background="new 0 0 93.7 93.6" xml:space="preserve">
<g id="XMLID_1_">
	<g>
		<path fill="#FFFFFF" d="M62.3,16.8l-1.8,9.5c0,0-1.2-0.5-5.9-0.6c-4.7-0.2-4.5,3-4.5,3v7.8h10.4v9.9h-9.6v32.3H38.1V46.1h-6.7
			v-9.8l6.5-0.3C37.8,21,39.8,15.1,49.8,15.1C59.9,15.1,62.3,16.8,62.3,16.8z"/>
		<path fill="#231F20" d="M46.8,0.5c25.6,0,46.3,20.7,46.3,46.3c0,25.6-20.8,46.3-46.3,46.3S0.5,72.4,0.5,46.8
			C0.5,21.2,21.2,0.5,46.8,0.5z M60.4,26.3l1.8-9.5c0,0-2.3-1.7-12.4-1.7C39.8,15.1,37.8,21,37.9,36l-6.5,0.3v9.8h6.7v32.4h12.7
			V46.3h9.6v-9.9H50v-7.8c0,0-0.2-3.1,4.5-3C59.2,25.8,60.4,26.3,60.4,26.3z"/>
	</g>
	<g>
		<path fill="none" stroke="#231F20" stroke-miterlimit="10" d="M46.8,0.5C21.2,0.5,0.5,21.2,0.5,46.8c0,25.6,20.8,46.3,46.3,46.3
			s46.3-20.7,46.3-46.3C93.2,21.2,72.4,0.5,46.8,0.5z"/>
		<path fill="none" stroke="#231F20" stroke-miterlimit="10" d="M60.4,26.3c0,0-1.2-0.5-5.9-0.6c-4.7-0.2-4.5,3-4.5,3v7.8h10.4v9.9
			h-9.6v32.3H38.1V46.1h-6.7v-9.8l6.5-0.3C37.8,21,39.8,15.1,49.8,15.1c10.1,0,12.4,1.7,12.4,1.7L60.4,26.3z"/>
	</g>
</g>
</svg>
