<?xml version="1.0" encoding="utf-8"?>
<!-- Generator: Adobe Illustrator 18.0.0, SVG Export Plug-In . SVG Version: 6.00 Build 0)  -->
<!DOCTYPE svg PUBLIC "-//W3C//DTD SVG 1.1//EN" "http://www.w3.org/Graphics/SVG/1.1/DTD/svg11.dtd">
<svg version="1.1" id="Layer_1" xmlns="http://www.w3.org/2000/svg" xmlns:xlink="http://www.w3.org/1999/xlink" x="0px" y="0px"
	 viewBox="0 0 93.7 93.6" enable-background="new 0 0 93.7 93.6" xml:space="preserve">
<circle fill="#231F20" stroke="#231F20" stroke-miterlimit="10" cx="46.8" cy="46.8" r="45.9"/>
<g>
	<path fill="#FFFFFF" d="M34.2,25.6h27.3c4.5,0,8.1,3.6,8.1,8.1v26.7c0,4.5-3.6,8.1-8.1,8.1H34.2c-4.5,0-8.1-3.6-8.1-8.1V33.7
		C26.1,29.3,29.8,25.6,34.2,25.6z"/>
	<path fill="#231F20" d="M59.4,30.1h3.8c0.6,0,1.1,0.5,1.1,1.1V35c0,0.6-0.5,1.1-1.1,1.1h-3.8c-0.6,0-1.1-0.5-1.1-1.1v-3.8
		C58.3,30.6,58.8,30.1,59.4,30.1z"/>
	<circle fill="#231F20" stroke="#231F20" stroke-width="0.3" stroke-miterlimit="10" cx="47.5" cy="48.1" r="7.6"/>
	<circle fill="none" stroke="#231F20" stroke-width="3" stroke-miterlimit="10" cx="47.8" cy="48.1" r="11.6"/>
	<line fill="none" stroke="#231F20" stroke-width="2.1" stroke-miterlimit="10" x1="57.4" y1="43.6" x2="73.4" y2="43.6"/>
	<line fill="none" stroke="#231F20" stroke-width="2.1" stroke-miterlimit="10" x1="20.2" y1="43.6" x2="36.3" y2="43.6"/>
</g>
<line fill="none" stroke="#231F20" stroke-width="1.2" stroke-miterlimit="10" x1="34" y1="36.1" x2="34" y2="25.1"/>
<line fill="none" stroke="#231F20" stroke-width="1.2" stroke-miterlimit="10" x1="31.8" y1="36.1" x2="31.8" y2="25.1"/>
<line fill="none" stroke="#231F20" stroke-width="1.2" stroke-miterlimit="10" x1="36.3" y1="36.1" x2="36.3" y2="25.1"/>
</svg>
