<?xml version="1.0" encoding="utf-8"?>
<!-- Generator: Adobe Illustrator 18.0.0, SVG Export Plug-In . SVG Version: 6.00 Build 0)  -->
<!DOCTYPE svg PUBLIC "-//W3C//DTD SVG 1.1//EN" "http://www.w3.org/Graphics/SVG/1.1/DTD/svg11.dtd">
<svg version="1.1" id="Layer_1" xmlns="http://www.w3.org/2000/svg" xmlns:xlink="http://www.w3.org/1999/xlink" x="0px" y="0px"
	 viewBox="0 0 93.7 93.6" enable-background="new 0 0 93.7 93.6" xml:space="preserve">
<circle fill="#231F20" stroke="#231F20" stroke-miterlimit="10" cx="46.8" cy="46.8" r="45.9"/>
<path fill="#FFFFFF" d="M47.8,40.7c0,0-12.6,0.7-23.4-11.5c0,0-4.7,8.8,3.5,14.8c0,0-4.2,0.5-4.8-1.3c0,0-0.5,8.7,8.8,10.5
	c0,0-0.7,1.5-5,0.7c0,0,2.3,7,10.2,7.5c0,0-4.5,5.5-16.4,4.8c0,0,21.2,14,40.2-5.3c0,0,8.8-8.5,8.3-23.2c0,0,2.2-1,5.7-5.2
	c0,0-5.3,1.3-6.5,1.3c0,0,3.8-2.7,4.8-6c0,0-5.5,2.8-7,2.5c0,0-8.2-7.7-16.3-0.2C49.9,30.2,45.7,34.7,47.8,40.7z"/>
</svg>
