<?xml version="1.0" encoding="utf-8"?>
<!-- Generator: Adobe Illustrator 18.0.0, SVG Export Plug-In . SVG Version: 6.00 Build 0)  -->
<!DOCTYPE svg PUBLIC "-//W3C//DTD SVG 1.1//EN" "http://www.w3.org/Graphics/SVG/1.1/DTD/svg11.dtd">
<svg version="1.1" id="Layer_1" xmlns="http://www.w3.org/2000/svg" xmlns:xlink="http://www.w3.org/1999/xlink" x="0px" y="0px"
	 viewBox="0 0 391 126.5" enable-background="new 0 0 391 126.5" xml:space="preserve">
<path fill="#FFFFFF" d="M189.9,96.1h-12.6l-19.8-41.4l-0.3,0.1v41.3h-12.7V31.4h12.7L177,72.7l0.3-0.1V31.4h12.6V96.1z"/>
<path fill="#FFFFFF" d="M217.3,90.5c-1.3,2.1-2.9,3.7-4.7,4.8c-1.9,1.1-3.9,1.7-6.3,1.7c-4.3,0-7.7-1.6-10.1-4.9
	c-2.4-3.2-3.6-8.3-3.6-15.1V48h12.6v29.2c0,3.4,0.4,5.9,1.2,7.4c0.8,1.5,2.1,2.3,3.7,2.3c1.4,0,2.6-0.3,3.7-0.8
	c1.1-0.5,1.9-1.3,2.7-2.3V48h12.7v48.1h-11.1L217.3,90.5z"/>
<path fill="#FFFFFF" d="M249.5,36v12h6.7v9.2h-6.7v24.1c0,2,0.3,3.4,0.8,4.2c0.6,0.8,1.3,1.3,2.3,1.3c0.8,0,1.4,0,2-0.1
	c0.5-0.1,1.1-0.2,1.8-0.4l1,9.6c-1.3,0.4-2.6,0.7-3.8,0.9c-1.2,0.2-2.6,0.3-4.1,0.3c-4.1,0-7.2-1.3-9.3-3.8
	c-2.1-2.5-3.2-6.5-3.2-11.9V57.1h-5.7V48h5.7V36H249.5z"/>
<path fill="#FFFFFF" d="M283.6,59.5l-4.8-0.1c-1.3,0-2.4,0.3-3.3,1c-0.9,0.7-1.5,1.6-2,2.8v33h-12.6V48h11.8l0.5,6.4l0.2,0.1
	c0.8-2.3,1.8-4.1,3.2-5.4c1.4-1.3,3-2,4.8-2c0.6,0,1.2,0.1,1.8,0.2c0.6,0.1,1.2,0.2,1.7,0.4L283.6,59.5z"/>
<path fill="#FFFFFF" d="M301.2,36.4h-12.6v-9.6h12.6V36.4z M301.2,96.1h-12.6V48h12.6V96.1z"/>
<path fill="#FFFFFF" d="M345.3,67.3h-22.7l-5.7,28.8h-8.9l12.9-64.7h35.3l-1.4,6.9h-26.4l-4.4,22.1h22.7L345.3,67.3z"/>
<path fill="#FFFFFF" d="M355.7,96.1h-8.9l9.6-48.1h8.9L355.7,96.1z M367.8,35.4h-8.9l1.7-8.6h8.9L367.8,35.4z"/>
<path fill="#FFFFFF" d="M386.4,36.2l-2.4,12h7.1l-1.3,6.4h-7.1L377,83.2c-0.5,2.7-0.6,4.5-0.1,5.4c0.5,1,1.3,1.4,2.4,1.4
	c0.6,0,1.2,0,1.9-0.1c0.6-0.1,1.3-0.2,2.1-0.4l-0.4,6.2c-1.1,0.4-2.2,0.7-3.5,1c-1.2,0.3-2.5,0.4-3.8,0.4c-3.1,0-5.4-1.1-6.9-3.4
	c-1.5-2.3-1.7-5.8-0.7-10.6l5.7-28.6h-5.9l1.3-6.4h5.9l2.4-12H386.4z"/>
<polygon fill="#FFFFFF" points="54.7,87.9 85,60.6 88.8,65.1 58.5,92.5 "/>
<path fill="#FFFFFF" d="M40.1,86.8l1.9-1.6c2.2-1.9,5.5-1.7,7.4,0.5L59.3,97c1.9,2.2,1.7,5.5-0.5,7.4l-1.9,1.6
	c-2.2,1.9-5.5,1.7-7.4-0.5l-9.9-11.4C37.7,92,37.9,88.7,40.1,86.8z"/>
<path fill="#FFFFFF" d="M95.7,43.5L95.7,43.5c1.1-0.9,2.6-0.8,3.6,0.2l7.4,8.5c0.9,1.1,0.8,2.6-0.2,3.6v0c-1.1,0.9-2.6,0.8-3.6-0.2
	L95.5,47C94.6,46,94.7,44.4,95.7,43.5z"/>
<path fill="#FFFFFF" d="M36.6,95.6L36.6,95.6c1-0.9,2.6-0.8,3.6,0.2l7.4,8.5c0.9,1,0.8,2.6-0.2,3.6h0c-1,0.9-2.6,0.8-3.6-0.2
	l-7.4-8.5C35.5,98.2,35.6,96.6,36.6,95.6z"/>
<path fill="#FFFFFF" d="M35,102.4l0.8-0.7c0.4-0.4,1.1-0.3,1.5,0.1l4.4,5c0.4,0.4,0.3,1.1-0.1,1.5l-0.8,0.7
	c-0.4,0.4-1.1,0.3-1.5-0.1l-4.4-5C34.5,103.4,34.6,102.8,35,102.4z"/>
<path fill="#FFFFFF" d="M101.4,43.8l0.8-0.7c0.4-0.4,1.1-0.3,1.5,0.1l4.4,5c0.4,0.4,0.3,1.1-0.1,1.5l-0.8,0.7
	c-0.4,0.4-1.1,0.3-1.5-0.1l-4.4-5C101,44.9,101,44.2,101.4,43.8z"/>
<path fill="#FFFFFF" d="M84.7,47.6l1.9-1.6c2.2-1.9,5.5-1.7,7.4,0.5l9.9,11.4c1.9,2.2,1.7,5.5-0.5,7.4l-1.9,1.6
	c-2.2,1.9-5.5,1.7-7.4-0.5L84.2,55C82.3,52.8,82.5,49.5,84.7,47.6z"/>
<circle fill="none" stroke="#FFFFFF" stroke-width="7" stroke-miterlimit="10" cx="63.2" cy="63.2" r="59.8"/>
<path fill="#FFFFFF" d="M74.9,68l-5.5,5.1c-3.8-4-6.2-6.3-6-5.8c-0.1-0.2-1.2-2.2-3.3-1.5c-2.2,0.8-8.2,2.2-10.7,0.4
	c-2.5-1.9-28.6-28.6-28.6-28.6l2.1-2.1l23.9,21.6c0,0,2.6-1.8,1.9-2.5C47.9,54,26.3,32.1,26.3,32.1l1.8-1.8l23.7,21.6l2.2-2.2
	l-23.2-22l1.6-1.7l23.9,21.6l2.4-2.4L34.6,23.7l2.1-2.1c0,0,30.4,23.8,31,25.4c0.6,1.5,2.4,5.1-0.4,12.1c0,0,0.7,2.5,1.2,3
	C68.7,62.2,71.1,64.5,74.9,68z"/>
<path fill="#FFFFFF" d="M105.7,95.3c-2.1,3.5-4.4,6.7-7.3,9.6c-8-9-16.7-18.5-23.5-25.8l6-5.5C88,80.1,97.2,88.3,105.7,95.3z"/>
</svg>
